HIERARCHY
ROOT RootJoint
{
    OFFSET   0.000000   0.000000   0.000000
    CHANNELS 6 Xposition Yposition Zposition Xrotation Yrotation Zrotation
    JOINT pelvis_lowerback
    {
        OFFSET   0.000000   0.093605   0.000000
        CHANNELS 3 Xrotation Yrotation Zrotation
        JOINT lowerback_torso
        {
            OFFSET   0.000000   0.100000   0.000000
            CHANNELS 3 Xrotation Yrotation Zrotation
            JOINT torso_head
            {
                OFFSET   0.000000   0.282350   0.000000
                CHANNELS 3 Xrotation Yrotation Zrotation
                End Site
                {
                    OFFSET   0.000000   0.192650   0.000000
                }
            }
            JOINT rTorso_Clavicle
            {
                OFFSET  -0.001000   0.157500   0.000000
                CHANNELS 3 Xrotation Yrotation Zrotation
                JOINT rShoulder
                {
                    OFFSET  -0.117647   0.000000   0.000000
                    CHANNELS 3 Xrotation Yrotation Zrotation
                    JOINT rElbow
                    {
                        OFFSET  -0.245000   0.000000   0.000000
                        CHANNELS 3 Xrotation Yrotation Zrotation
                        JOINT rWrist
                        {
                            OFFSET  -0.240000   0.000000   0.000000
                            CHANNELS 3 Xrotation Yrotation Zrotation
                            End Site
                            {
                                OFFSET  -0.116353  -0.002500   0.000000
                            }
                        }
                    }
                }
            }
            JOINT lTorso_Clavicle
            {
                OFFSET   0.001000   0.157500   0.000000
                CHANNELS 3 Xrotation Yrotation Zrotation
                JOINT lShoulder
                {
                    OFFSET   0.117647   0.000000   0.000000
                    CHANNELS 3 Xrotation Yrotation Zrotation
                    JOINT lElbow
                    {
                        OFFSET   0.245000   0.000000   0.000000
                        CHANNELS 3 Xrotation Yrotation Zrotation
                        JOINT lWrist
                        {
                            OFFSET   0.240000   0.000000   0.000000
                            CHANNELS 3 Xrotation Yrotation Zrotation
                            End Site
                            {
                                OFFSET   0.116353  -0.002500   0.000000
                            }
                        }
                    }
                }
            }
        }
    }
    JOINT rHip
    {
        OFFSET  -0.100000  -0.051395   0.000000
        CHANNELS 3 Xrotation Yrotation Zrotation
        JOINT rKnee
        {
            OFFSET   0.000000  -0.410000   0.000000
            CHANNELS 3 Xrotation Yrotation Zrotation
            JOINT rAnkle
            {
                OFFSET   0.000000  -0.390000   0.000000
                CHANNELS 3 Xrotation Yrotation Zrotation
                JOINT rToeJoint
                {
                    OFFSET   0.000000  -0.050000   0.130000
                    CHANNELS 3 Xrotation Yrotation Zrotation
                    End Site
                    {
                        OFFSET  -0.010000   0.002000   0.060000
                    }
                }
            }
        }
    }
    JOINT lHip
    {
        OFFSET   0.100000  -0.051395   0.000000
        CHANNELS 3 Xrotation Yrotation Zrotation
        JOINT lKnee
        {
            OFFSET   0.000000  -0.410000   0.000000
            CHANNELS 3 Xrotation Yrotation Zrotation
            JOINT lAnkle
            {
                OFFSET   0.000000  -0.390000   0.000000
                CHANNELS 3 Xrotation Yrotation Zrotation
                JOINT lToeJoint
                {
                    OFFSET   0.000000  -0.050000   0.130000
                    CHANNELS 3 Xrotation Yrotation Zrotation
                    End Site
                    {
                        OFFSET   0.010000   0.002000   0.060000
                    }
                }
            }
        }
    }
}
MOTION
Frames: 17
Frame Time:   0.008333
 -2.335599   0.922322   4.081500  23.166188   0.307106  -3.709759  13.530112   3.820040   3.777653  -7.678069  -3.225945   0.820667  -0.992337   0.894047  -3.986795 -16.885752  22.829537 -29.014453 -45.755570  21.310382  -3.849399   0.146357  39.235277  -0.052039   2.726262   0.238098  -9.977058 -14.323340 -21.247119  27.655700 -35.049999 -24.877443   7.716377   0.085384 -37.529145   0.000151  -0.299632  -9.001885  12.966735 -39.217735  -7.879330  -4.954282  46.659354  -0.032044  -0.047895  -3.302118  -6.584803  10.526318  -4.672235   0.000469   0.024298 -41.667248   4.212257   8.073291  47.429900   0.025969   0.007437  10.950235   3.020537  -6.478041 -44.751571  -0.013039   0.003379
 -2.336235   0.936799   4.095009  23.490575   0.817094  -4.546348  11.152648   3.740578   4.730378  -7.283905  -3.507315   0.949442  -0.097807   0.814654  -4.142302 -16.132010  22.083843 -30.273932 -46.110475  21.281585  -4.350562   0.148698  37.693288  -0.043262   2.796954   0.164810 -10.278988 -13.635768 -20.277707  27.940102 -34.731289 -24.847902   8.015842   0.079107 -36.194300  -0.011536  -0.225587  -9.066412  12.761354 -37.522293  -8.203815  -4.069771  45.375918  -0.028401  -0.047290  -1.169968  -6.454572  11.042873  -3.667338   0.001340   0.022713 -39.931781   3.820817   8.511306  43.933874   0.021057  -0.004482  14.587457   2.914136  -7.200640 -43.101329  -0.008660   0.015371
 -2.337147   0.951079   4.108471  23.825378   1.399483  -5.409921   8.841654   3.539277   5.577219  -7.022136  -3.828738   0.943940   0.756923   0.573526  -4.210388 -15.380553  21.307992 -30.509899 -46.391273  21.082663  -4.756643   0.139547  36.358515  -0.037228   2.958989   0.512741 -10.885453 -12.910189 -19.432159  28.195120 -34.376125 -24.896682   8.324522   0.073604 -34.951808  -0.017540  -0.139538  -9.085208  12.415269 -35.886957  -8.504993  -3.167108  44.247186  -0.025269  -0.046239   0.822503  -6.315890  11.520835  -2.737414   0.002503   0.021529 -38.295086   3.501797   9.018364  40.360540   0.016979  -0.018694  18.267023   2.826234  -7.853441 -40.637448  -0.004771   0.033698
 -2.337871   0.964903   4.121485  24.121391   2.010702  -6.292192   6.698332   3.320048   6.391661  -6.737920  -4.130495   1.041952   1.541341   0.377342  -4.384012 -14.640068  20.547135 -30.828416 -46.631395  20.768822  -5.037272   0.129065  35.006555  -0.031964   3.044550   0.461097 -11.184859 -12.274787 -18.595160  28.429647 -34.065462 -24.843654   8.572901   0.067941 -33.766041  -0.022816  -0.083004  -9.013515  12.064281 -34.321919  -8.775774  -2.295157  43.248736  -0.022763  -0.044279   2.682543  -6.169945  11.961761  -1.883366   0.003911   0.020198 -36.784634   3.199094   9.569098  36.927579   0.014539  -0.030851  22.004704   2.718456  -8.506257 -37.084887   0.002259   0.059127
 -2.338332   0.978174   4.134005  24.381849   2.620896  -7.154770   4.720782   3.109194   7.177361  -6.447987  -4.393000   1.179333   2.286084   0.210135  -4.575812 -13.942097  19.828355 -31.143724 -46.846976  20.451702  -5.281867   0.118034  33.713290  -0.028372   3.092298   0.206087 -11.323580 -11.698476 -17.796751  28.642197 -33.778275 -24.746212   8.799705   0.062243 -32.642099  -0.027357  -0.047469  -8.856050  11.728307 -32.843967  -9.005286  -1.488258  42.348928  -0.020733  -0.041606   4.417904  -6.020903  12.367187  -1.103180   0.005306   0.018565 -35.404211   2.917830  10.132705  33.649254   0.013605  -0.039978  25.783069   2.566085  -9.158862 -32.584927   0.015266   0.086725
 -2.338502   0.990868   4.146008  24.606144   3.212611  -7.982917   2.903559   2.913952   7.931500  -6.154892  -4.615221   1.336353   2.989615   0.066562  -4.765806 -13.291170  19.155859 -31.439585 -47.046425  20.154175  -5.501868   0.106741  32.497369  -0.025991   3.124895  -0.110115 -11.404835 -11.170442 -17.042955  28.832799 -33.510445 -24.631509   9.011023   0.056608 -31.584766  -0.030942  -0.022420  -8.655208  11.412273 -31.455680  -9.195956  -0.756692  41.526205  -0.019061  -0.038473   6.036712  -5.871425  12.739518  -0.390113   0.006517   0.016681 -34.152844   2.664458  10.663449  30.566233   0.012820  -0.045567  29.568993   2.339595  -9.810277 -27.796287   0.034960   0.106696
 -2.338418   1.002984   4.157494  24.795379   3.779262  -8.773823   1.237329   2.733909   8.650731  -5.857472  -4.802364   1.506846   3.651007  -0.056687  -4.948298 -12.685627  18.527785 -31.713409 -47.232888  19.881152  -5.699534   0.095478  31.360168  -0.024275   3.151443  -0.434380 -11.460008 -10.684796 -16.334060  29.002600 -33.260424 -24.512614   9.208631   0.051126 -30.594605  -0.033488  -0.001212  -8.441672  11.116295 -30.155109  -9.352930  -0.095822  40.767425  -0.017648  -0.035138   7.546594  -5.723480  13.081390   0.261285   0.007461   0.014684 -33.020188   2.434340  11.160223  27.687787   0.012020  -0.048300  33.124434   2.086236 -10.409687 -22.992284   0.056283   0.116202
 -2.337730   1.014319   4.167558  24.998931   4.151335  -8.529426  -0.157430   2.627924   8.093105  -5.570715  -4.982461   1.699052   4.212297  -0.065341  -4.904113 -12.324050  17.868161 -31.755148 -47.245959  19.907370  -5.867967   0.085325  30.063006  -0.020558   3.125257  -0.846209 -11.584331 -10.361348 -15.779748  29.010948 -32.980051 -24.657490   9.527741   0.047628 -29.368732  -0.033981   0.005434  -8.281525  11.078945 -29.484716  -9.065473  -0.581526  40.146805  -0.016335  -0.029710   9.412830  -5.661414  13.281069   0.963145   0.009233   0.010271 -32.651125   2.754246  10.713478  27.326479   0.009366  -0.039724  32.129791   2.368084 -10.945924 -18.893006   0.078506   0.112292
 -2.336913   1.025148   4.176904  25.108760   4.366806  -8.070954  -1.353234   2.577868   7.408947  -5.226602  -5.127598   1.751642   4.742421  -0.068031  -4.869837 -11.964168  17.270407 -31.795827 -47.251428  19.955676  -6.013056   0.074635  28.861367  -0.015618   3.099365  -1.245009 -11.691202 -10.062601 -15.259357  28.967520 -32.722022 -24.779902   9.813251   0.042523 -28.219767  -0.032581  -0.003345  -8.072065  11.139803 -28.954421  -8.739478  -1.289555  39.442138  -0.015288  -0.024291  11.159074  -5.607301  13.458687   1.649513   0.009852   0.005967 -32.336633   3.098928  10.151667  27.386461   0.007548  -0.031687  31.186844   2.638308 -11.443867 -15.393696   0.087273   0.099419
 -2.336154   1.035477   4.185669  25.156589   4.465999  -7.565626  -2.400020   2.561097   6.723988  -4.839600  -5.249977   1.743532   5.242402  -0.070928  -4.842600 -11.605265  16.730044 -31.842413 -47.250200  20.018857  -6.135963   0.064260  27.747697  -0.010355   3.082466  -1.586886 -11.763212  -9.774218 -14.768078  28.888269 -32.478190 -24.878639  10.058145   0.036547 -27.143970  -0.030214  -0.017954  -7.847164  11.193708 -28.537783  -8.429370  -2.032987  38.717177  -0.014187  -0.019191  12.785918  -5.555919  13.620631   2.272188   0.009502   0.002432 -32.029600   3.419639   9.632906  27.527654   0.006048  -0.025279  30.314677   2.897726 -11.904279 -12.182157   0.088402   0.084268
 -2.335506   1.045282   4.193926  25.157836   4.494518  -7.060039  -3.316608   2.560487   6.060414  -4.423224  -5.362995   1.707093   5.712001  -0.074537  -4.818082 -11.254515  16.237088 -31.890393 -47.244292  20.089933  -6.241564   0.054681  26.713888  -0.005345   3.073817  -1.878324 -11.804679  -9.490158 -14.310637  28.786326 -32.246283 -24.962844  10.266260   0.030282 -26.138329  -0.027408  -0.034800  -7.620773  11.218663 -28.216126  -8.143199  -2.766154  38.003761  -0.013046  -0.014686  14.302007  -5.505908  13.769695   2.835193   0.008647  -0.000225 -31.735432   3.710063   9.181021  27.679794   0.004781  -0.020224  29.504036   3.146995 -12.329815  -9.234962   0.084861   0.069648
 -2.334978   1.054540   4.201738  25.120924   4.483649  -6.570188  -4.117514   2.566880   5.423782  -3.985916  -5.473882   1.655044   6.152567  -0.078767  -4.795588 -10.916973  15.784005 -31.936734 -47.235408  20.164048  -6.333849   0.046109  25.752839  -0.000908   3.071286  -2.131219 -11.823638  -9.207530 -13.889406  28.670556 -32.025055 -25.039327  10.441850   0.024132 -25.199962  -0.024502  -0.051531  -7.402960  11.212515 -27.971010  -7.879095  -3.475379  37.313851  -0.011928  -0.010889  15.715330  -5.456906  13.907466   3.345067   0.007595  -0.002086 -31.459949   3.971769   8.792651  27.826084   0.003724  -0.016213  28.749373   3.385945 -12.723278  -6.532930   0.078758   0.056748
 -2.334560   1.063232   4.209161  25.051953   4.452637  -6.102446  -4.815985   2.575603   4.815708  -3.534177  -5.585611   1.593521   6.565767  -0.083429  -4.775105 -10.595159  15.365667 -31.980205 -47.224689  20.238497  -6.415559   0.038599  24.858553   0.002816   3.073117  -2.354720 -11.826662  -8.925434 -13.504353  28.546664 -31.813711 -25.112073  10.588767   0.018367 -24.325482  -0.021697  -0.066639  -7.199864  11.176595 -27.787209  -7.633946  -4.155705  36.651988  -0.010874  -0.007793  17.033105  -5.408892  14.035048   3.807516   0.006517  -0.003291 -31.206048   4.207736   8.459669  27.961936   0.002858  -0.013011  28.046381   3.614365 -13.087270  -4.056725   0.071485   0.045883
 -2.334556   1.071437   4.215321  24.895354   4.265835  -5.733568  -5.000465   2.607285   4.316191  -3.409924  -5.565115   1.484133   6.858017  -0.067752  -4.656313 -10.527693  15.175498 -31.684258 -46.987024  20.455425  -6.391755   0.030513  24.204123   0.004399   3.023655  -2.638973 -12.191438  -8.819931 -13.405357  28.280170 -31.714810 -25.071855  10.519064   0.013668 -23.900147  -0.016663  -0.147492  -6.907614  11.403584 -27.906559  -7.226221  -4.590615  36.642992  -0.008715  -0.006226  17.189431  -5.255767  13.798092   3.826881   0.005276  -0.002630 -31.344516   4.514525   8.353908  28.944532   0.001494  -0.010218  27.024462   3.912102 -13.203859  -3.017507   0.058607   0.037963
 -2.334706   1.079145   4.220833  24.654780   4.032809  -5.380104  -5.047478   2.650332   3.833530  -3.197639  -5.528989   1.372926   7.112635  -0.051289  -4.542853 -10.409546  15.031429 -31.347917 -46.756495  20.662245  -6.309395   0.022707  23.607280   0.005990   2.984516  -2.833187 -12.546598  -8.687665 -13.331245  27.967498 -31.620686 -25.036287  10.406009   0.009157 -23.516838  -0.012778  -0.221171  -6.723699  11.680023 -28.085218  -6.844163  -4.950505  36.708403  -0.006931  -0.005027  17.327905  -5.111129  13.576631   3.770382   0.004092  -0.002121 -31.524920   4.792377   8.281615  29.967869   0.000404  -0.008411  26.075853   4.194303 -13.305966  -2.083193   0.047814   0.031145
 -2.334954   1.086332   4.225821  24.356546   3.787679  -5.037612  -4.995090   2.700659   3.364791  -2.902562  -5.489436   1.258053   7.347540  -0.036034  -4.438519 -10.259130  14.916828 -31.004811 -46.533477  20.854049  -6.191996   0.015678  23.051712   0.007461   2.951739  -2.993068 -12.812159  -8.530297 -13.273489  27.638312 -31.525780 -25.002397  10.261503   0.005039 -23.160918  -0.009886  -0.288784  -6.572902  11.893440 -28.295454  -6.493533  -5.260440  36.768436  -0.005538  -0.004075  17.457686  -4.976007  13.370296   3.716384   0.003191  -0.001723 -31.726208   5.044337   8.213981  30.929431  -0.000306  -0.007191  25.191666   4.459327 -13.396277  -1.223904   0.038999   0.025258
 -2.335270   1.092969   4.230375  24.017616   3.547329  -4.709121  -4.860350   2.754199   2.911868  -2.543066  -5.450342   1.140422   7.567213  -0.021881  -4.342446 -10.089889  14.825039 -30.667481 -46.319708  21.033638  -6.054545   0.009628  22.533749   0.008691   2.922704  -3.134834 -12.998698  -8.354327 -13.230593  27.304341 -31.430680 -24.971517  10.095262   0.001447 -22.829599  -0.007767  -0.352659  -6.436015  12.033239 -28.528320  -6.170214  -5.528564  36.811378  -0.004441  -0.003299  17.578662  -4.849939  13.177951   3.664613   0.002500  -0.001416 -31.949646   5.273999   8.145124  31.816437  -0.000684  -0.006274  24.366008   4.707857 -13.476424  -0.438110   0.031884   0.020249
